<svg width="630" height="630" viewBox="0 0 630 630" fill="none" xmlns="http://www.w3.org/2000/svg">
<circle cx="315" cy="315" r="315" fill="#141914"/>
<mask id="mask0_10_599" style="mask-type:alpha" maskUnits="userSpaceOnUse" x="46" y="45" width="540" height="540">
<circle cx="316" cy="315" r="270" fill="white"/>
</mask>
<g mask="url(#mask0_10_599)">
<path d="M86.8811 265L45.5979 223.717L34.2841 235.03L80.2519 280.998L80.254 280.996V281L105.259 281C108.096 288.593 115.417 294 124 294C135.045 294 144 285.046 144 274C144 262.954 135.045 254 124 254C116.191 254 109.428 258.475 106.134 265L86.8811 265Z" fill="white"/>
<path d="M102.881 209L62.7046 168.823L51.3909 180.137L96.2598 225.006L96.2658 225L161.259 225C164.096 232.593 171.417 238 180 238C191.046 238 200 229.046 200 218C200 206.954 191.046 198 180 198C172.191 198 165.428 202.475 162.134 209L102.881 209Z" fill="white"/>
<path d="M278.134 167L70.6899 167L70.6899 151H114.568L170.569 94.9997L170.584 95.0155V94.9999L221.259 94.9999C224.097 87.4065 231.417 81.9998 240 81.9998C251.046 81.9998 260 90.9541 260 102C260 113.046 251.046 122 240 122C232.192 122 225.428 117.525 222.135 111L177.196 111L137.196 151L277.259 151C280.097 143.407 287.417 138 296 138C307.046 138 316 146.954 316 158C316 169.046 307.046 178 296 178C288.191 178 281.428 173.525 278.134 167Z" fill="white"/>
<path d="M538.865 264C535.572 257.475 528.809 253 521 253C509.954 253 501 261.954 501 273C501 284.046 509.954 293 521 293C529.583 293 536.904 287.593 539.741 280H597.748V264H538.865Z" fill="white"/>
<path d="M482.865 208C479.572 201.475 472.809 197 465 197C453.954 197 445 205.954 445 217C445 228.046 453.954 237 465 237C473.583 237 480.904 231.593 483.741 224H586V208H482.865Z" fill="white"/>
<path d="M405 102C405 90.9542 396.046 81.9999 385 81.9999C373.954 81.9999 365 90.9542 365 102C365 113.046 373.954 122 385 122C387.114 122 389.151 121.672 391.064 121.064L438 168L564.522 168V152H444.627L403.115 110.488C404.324 107.911 405 105.034 405 102Z" fill="white"/>
<rect x="58" y="342" width="12" height="220" rx="6" fill="white"/>
<rect x="84" y="347.5" width="12" height="209" rx="6" fill="white"/>
<rect x="110" y="395.5" width="12" height="113" rx="6" fill="white"/>
<rect x="136" y="358.5" width="12" height="187" rx="6" fill="white"/>
<rect x="162" y="371.5" width="12" height="161" rx="6" fill="white"/>
<rect x="188" y="397" width="12" height="110" rx="6" fill="white"/>
<rect x="214" y="417.5" width="12" height="69" rx="6" fill="white"/>
<rect x="240" y="363.5" width="12" height="177" rx="6" fill="white"/>
<rect x="266" y="378.5" width="12" height="147" rx="6" fill="white"/>
<rect x="292" y="396.5" width="12" height="111" rx="6" fill="white"/>
<rect x="318" y="385.5" width="12" height="133" rx="6" fill="white"/>
<rect x="344" y="427.5" width="12" height="49" rx="6" fill="white"/>
<rect x="370" y="359.5" width="12" height="185" rx="6" fill="white"/>
<rect x="396" y="395.5" width="12" height="113" rx="6" fill="white"/>
<rect x="422" y="352.5" width="12" height="199" rx="6" fill="white"/>
<rect x="448" y="371.5" width="12" height="161" rx="6" fill="white"/>
<rect x="474" y="393.5" width="12" height="117" rx="6" fill="white"/>
<rect x="500" y="407" width="12" height="90" rx="6" fill="white"/>
<rect x="526" y="377" width="12" height="150" rx="6" fill="white"/>
<rect x="552" y="392" width="12" height="120" rx="6" fill="white"/>
<rect x="84" y="420.5" width="12" height="170" rx="6" fill="#088732"/>
<rect x="110" y="445.5" width="12" height="120" rx="6" fill="#088732"/>
<rect x="136" y="411" width="12" height="189" rx="6" fill="#088732"/>
<rect x="162" y="425.5" width="12" height="160" rx="6" fill="#088732"/>
<rect x="188" y="475.5" width="12" height="60" rx="6" fill="#088732"/>
<rect x="214" y="420" width="12" height="171" rx="6" fill="#088732"/>
<rect x="240" y="433" width="12" height="145" rx="6" fill="#088732"/>
<rect x="266" y="469" width="12" height="73" rx="6" fill="#088732"/>
<rect x="292" y="415" width="12" height="181" rx="6" fill="#088732"/>
<rect x="318" y="430" width="12" height="151" rx="6" fill="#088732"/>
<rect x="344" y="455.5" width="12" height="100" rx="6" fill="#088732"/>
<rect x="370" y="438" width="12" height="135" rx="6" fill="#088732"/>
<rect x="396" y="479" width="12" height="53" rx="6" fill="#088732"/>
<rect x="422" y="420" width="12" height="171" rx="6" fill="#088732"/>
<rect x="448" y="411" width="12" height="189" rx="6" fill="#088732"/>
<rect x="474" y="447" width="12" height="117" rx="6" fill="#088732"/>
<rect x="500" y="415" width="12" height="181" rx="6" fill="#088732"/>
<rect x="526" y="420" width="12" height="171" rx="6" fill="#088732"/>
<rect x="552" y="455.5" width="12" height="100" rx="6" fill="#088732"/>
<rect x="578" y="485.5" width="12" height="40" rx="6" fill="#088732"/>
<path fill-rule="evenodd" clip-rule="evenodd" d="M221.202 483.237C228.095 490.203 240.295 500.221 253.002 506.044C264.036 511.1 262.33 617.195 270.983 611.176C271.993 610.665 311.743 625.161 315.832 603.505C320.624 578.122 307.057 550.001 310.159 525.85C323.047 503.499 349.214 498.027 367.595 482.04C385.976 466.052 389.696 459.998 399.008 446.231C408.32 432.464 414.364 423.314 419.721 407.18C425.078 391.046 427.69 381.28 428.612 371.166C430.483 350.644 433.327 359.2 426.902 297.906C420.476 236.612 385.177 191.758 369.744 154.489C369.744 154.489 357.136 169.921 345.909 181.797C345.488 182.242 345.073 182.682 344.662 183.116C334.121 194.274 326.733 202.094 309.32 215.933C305.075 219.306 300.621 222.721 296.036 226.237C281.077 237.706 264.712 250.253 249.597 265.973C238.903 277.094 224.023 295.798 216.595 309.452C209.029 323.357 205.327 330.667 201.058 342.642C197.026 353.951 191.802 371.248 191.371 386.779C191 400.117 191.185 418.118 195.448 433.872C199.052 447.194 208.323 470.222 221.202 483.237Z" fill="#141914"/>
<path d="M295.387 582.174C289.743 550.327 284.402 518.959 284.983 517.466C286.18 514.395 289.094 507.203 298.678 500.216C306.812 494.286 312.204 491.566 317.817 488.735C320.656 487.303 323.551 485.843 326.885 483.924C336.814 478.213 342.281 473.264 342.281 473.264C353.401 464.122 367.754 447.693 371.357 441.916C378.662 430.207 385.949 416.486 390.368 405.41C396.172 390.86 400.17 368.758 400.971 360.02C402.597 342.291 403.553 328.133 401.128 307.244C397.091 272.466 387.656 239.669 374.307 207.478C374.307 207.478 369.193 213.724 362.848 220.956L364.455 226.41L372.949 252.349L380.873 298.677L381.936 316.756L381.533 338.13L378.822 357.87L373.972 376.961L368.446 392.109L363.232 403.146L357.681 412.212L347.059 427.217L335.931 439.266L320.691 451.003L291.004 467.24L282.307 474.713C281.299 479.129 280.438 483.587 279.697 487.425L279.587 487.994L292.733 584.122L295.387 582.174Z" fill="#088732"/>
<path fill-rule="evenodd" clip-rule="evenodd" d="M241.318 458.491C245.371 464.392 249.832 469.717 254.209 474.548C256.827 477.437 257.613 477.88 259.248 480.28C277.363 506.874 275.574 572.769 281.067 604.886L300.781 601.514C300.781 601.514 279.662 486.934 280.719 484.217C281.776 481.5 284.351 475.138 292.82 468.959C300.008 463.714 304.773 461.308 309.733 458.804C312.242 457.538 314.8 456.247 317.747 454.55C326.521 449.498 331.352 445.121 331.352 445.121C341.179 437.035 353.861 422.503 357.046 417.393C363.5 407.035 369.938 394.897 373.842 385.099C378.97 372.228 382.499 352.675 383.206 344.946C384.641 329.261 385.483 316.736 383.337 298.255C379.764 267.488 371.42 238.471 359.617 209.991C359.617 209.991 349.968 221.786 341.375 230.865C341.053 231.205 340.735 231.541 340.421 231.873C332.354 240.402 326.7 246.38 313.374 256.959C310.125 259.538 306.717 262.148 303.208 264.836C291.76 273.604 279.236 283.195 267.668 295.212C259.484 303.713 248.095 318.01 242.409 328.446C236.618 339.074 233.784 344.661 230.516 353.814C227.429 362.458 223.429 375.678 223.097 387.548C222.811 397.742 222.95 411.499 226.209 423.538C228.965 433.719 233.991 447.824 241.318 458.491ZM273.709 480.343C273.778 479.987 273.848 479.627 273.912 479.299C274.002 478.834 274.08 478.434 274.124 478.202C274.653 475.073 274.778 471.982 274.903 468.89C275.04 465.506 275.177 462.119 275.843 458.673C275.908 458.335 275.974 457.99 276.042 457.639C277.424 450.472 279.277 440.858 281.822 434.317C282.428 432.76 283.046 431.034 283.701 429.207C285.332 424.658 287.187 419.481 289.63 414.72C293.054 408.047 296.971 401.29 307.1 386.369C317.23 371.448 324.584 361.059 327.444 357.019C334.236 347.424 339.772 337.157 346.114 323.469C352.456 309.782 353.893 281.549 349.902 283.683C349.902 283.683 342.392 296.128 337.152 301.082C331.913 306.036 320.616 317.099 320.616 317.099C320.616 317.099 312.676 325.71 307.854 331.456C303.125 337.09 298.858 342.94 294.611 348.939C294.611 348.939 289.709 355.864 285.792 362.621C281.875 369.378 279.592 373.827 279.592 373.827L272.096 389.312C272.096 389.312 267.867 400.181 266.739 405.446C265.611 410.712 264.002 419.103 264.002 419.103C264.002 419.103 262.718 426.425 263.094 437.52C263.579 451.839 266.83 467.425 272.976 480.469L273.709 480.343Z" fill="white"/>
<path d="M452.232 277C452.232 281.418 448.651 285 444.232 285C439.814 285 436.232 281.418 436.232 277C436.232 272.582 439.814 269 444.232 269C448.651 269 452.232 272.582 452.232 277Z" fill="#088732"/>
<path d="M239.004 213.11C239.004 217.528 235.423 221.11 231.004 221.11C226.586 221.11 223.004 217.528 223.004 213.11C223.004 208.691 226.586 205.11 231.004 205.11C235.423 205.11 239.004 208.691 239.004 213.11Z" fill="#088732"/>
<circle cx="413" cy="191" r="8" transform="rotate(90 413 191)" fill="#088732"/>
<circle cx="210.332" cy="269.268" r="8" fill="#088732"/>
<path d="M150 184C150 188.418 146.418 192 142 192C137.582 192 134 188.418 134 184C134 179.582 137.582 176 142 176C146.418 176 150 179.582 150 184Z" fill="#088732"/>
<circle cx="473" cy="126" r="8" fill="#088732"/>
<circle cx="207.854" cy="139.172" r="8" fill="#088732"/>
<circle cx="436" cy="86.9999" r="8" fill="#088732"/>
<circle cx="279.868" cy="117.479" r="8" fill="#088732"/>
<path d="M269.671 215.294V213.294L277.671 208.294L281.671 201.294H283.671L286.671 208.294L295.671 213.294V215.294L286.671 220.294L283.671 227.294H281.671L277.671 220.294L269.671 215.294Z" fill="#088732"/>
<path d="M353.769 142H351.231L344.885 152.154L336 157.231V159.769L344.885 163.577L351.231 175H353.769L360.115 163.577L369 159.769V157.231L360.115 152.154L353.769 142Z" fill="#088732"/>
<path d="M323.923 48.9999H320.077L310.462 64.3845L297 72.0768V75.923L310.462 81.6922L320.077 98.9999H323.923L333.538 81.6922L347 75.923V72.0768L333.538 64.3845L323.923 48.9999Z" fill="#088732"/>
</g>
</svg>
