<svg xmlns="http://www.w3.org/2000/svg" fill="none" viewBox="0 0 610 610">
  <circle cx="305" cy="305" r="305" fill="#041F2C"/>
  <mask id="a" width="540" height="540" x="36" y="35" maskUnits="userSpaceOnUse" style="mask-type:alpha">
    <circle cx="306" cy="305" r="270" fill="#fff"/>
  </mask>
  <g mask="url(#a)">
    <circle cx="22" cy="22" r="22" fill="#fff" transform="matrix(-1 0 0 1 250 91)"/>
    <circle cx="22" cy="22" r="22" fill="#fff" transform="matrix(-1 0 0 1 306 147)"/>
    <circle cx="116" cy="281" r="22" fill="#fff" transform="rotate(-90 116 281)"/>
    <path fill="#fff" d="m-96.9 100.2 179 179-11.3 11.3-179-179z"/>
    <path fill="#fff" d="M70 274h52v16H70z"/>
    <circle cx="172" cy="225" r="22" fill="#fff" transform="rotate(-90 172 225)"/>
    <path fill="#fff" d="M-73.9 51.2 97.2 222.3 86 233.6l-171.1-171zM478.3 145.8 653.1-29l11.3 11.3-174.8 174.8z"/>
    <path fill="#fff" d="M86 218h94v16H86zM166 107h67v16h-67z"/>
    <path fill="#fff" d="m124.3 171.9 53.1-53.1-11.3-11.3-53.1 53z"/>
    <path fill="#fff" d="M-1 176h205v-16H-1z"/>
    <path fill="#fff" d="M156 176h112v-16H156zM530.1 257.1l94.4-94.4 11.3 11.3-94.4 94.4z"/>
    <path fill="#fff" d="M496 253h45v16h-45zM504.6 201.6l87-86.9 11.2 11.3-86.9 87z"/>
    <circle cx="501" cy="261" r="22" fill="#fff" transform="rotate(-90 501 261)"/>
    <path fill="#fff" d="M516 213h-71v-16h71z"/>
    <circle cx="445" cy="205" r="22" fill="#fff" transform="rotate(-90 445 205)"/>
    <path fill="#fff" d="M490 157h-85v-16h85z"/>
    <circle cx="389" cy="149" r="22" fill="#fff" transform="rotate(-90 389 149)"/>
    <rect width="12" height="161" x="45" y="368" fill="#fff" rx="6"/>
    <rect width="12" height="229" x="71" y="334" fill="#fff" rx="6"/>
    <rect width="12" height="113" x="97" y="392" fill="#fff" rx="6"/>
    <rect width="12" height="187" x="123" y="355" fill="#fff" rx="6"/>
    <rect width="12" height="161" x="149" y="368" fill="#fff" rx="6"/>
    <rect width="12" height="139" x="175" y="379" fill="#fff" rx="6"/>
    <rect width="12" height="69" x="201" y="414" fill="#fff" rx="6"/>
    <rect width="12" height="177" x="227" y="360" fill="#fff" rx="6"/>
    <rect width="12" height="147" x="253" y="375" fill="#fff" rx="6"/>
    <rect width="12" height="111" x="279" y="393" fill="#fff" rx="6"/>
    <rect width="12" height="133" x="305" y="382" fill="#fff" rx="6"/>
    <rect width="12" height="49" x="331" y="424" fill="#fff" rx="6"/>
    <rect width="12" height="185" x="357" y="356" fill="#fff" rx="6"/>
    <rect width="12" height="113" x="383" y="392" fill="#fff" rx="6"/>
    <rect width="12" height="199" x="409" y="349" fill="#fff" rx="6"/>
    <rect width="12" height="161" x="435" y="368" fill="#fff" rx="6"/>
    <rect width="12" height="117" x="461" y="390" fill="#fff" rx="6"/>
    <rect width="12" height="69" x="487" y="414" fill="#fff" rx="6"/>
    <rect width="12" height="177" x="513" y="360" fill="#fff" rx="6"/>
    <rect width="12" height="147" x="539" y="375" fill="#fff" rx="6"/>
    <rect width="12" height="111" x="565" y="393" fill="#fff" rx="6"/>
    <rect width="12" height="171" x="97" y="420" fill="#32AA5A" rx="6"/>
    <rect width="12" height="189" x="123" y="411" fill="#32AA5A" rx="6"/>
    <rect width="12" height="117" x="149" y="447" fill="#32AA5A" rx="6"/>
    <rect width="12" height="181" x="175" y="415" fill="#32AA5A" rx="6"/>
    <rect width="12" height="171" x="201" y="420" fill="#32AA5A" rx="6"/>
    <rect width="12" height="145" x="227" y="433" fill="#32AA5A" rx="6"/>
    <rect width="12" height="73" x="253" y="469" fill="#32AA5A" rx="6"/>
    <rect width="12" height="181" x="279" y="415" fill="#32AA5A" rx="6"/>
    <rect width="12" height="151" x="305" y="430" fill="#32AA5A" rx="6"/>
    <rect width="12" height="107" x="331" y="452" fill="#32AA5A" rx="6"/>
    <rect width="12" height="135" x="357" y="438" fill="#32AA5A" rx="6"/>
    <rect width="12" height="53" x="383" y="479" fill="#32AA5A" rx="6"/>
    <rect width="12" height="171" x="409" y="420" fill="#32AA5A" rx="6"/>
    <rect width="12" height="189" x="435" y="411" fill="#32AA5A" rx="6"/>
    <rect width="12" height="117" x="461" y="447" fill="#32AA5A" rx="6"/>
    <rect width="12" height="181" x="487" y="415" fill="#32AA5A" rx="6"/>
    <rect width="12" height="171" x="513" y="420" fill="#32AA5A" rx="6"/>
    <rect width="12" height="145" x="539" y="433" fill="#32AA5A" rx="6"/>
    <rect width="12" height="73" x="565" y="469" fill="#32AA5A" rx="6"/>
    <path fill="#031E2C" fill-rule="evenodd" d="M208.7 473.2c6.9 7 19 17 31.8 22.8 11 5.1 9.3 111.2 18 105.2 1-.5 40.7 14 44.8-7.7 4.8-25.4-8.8-53.5-5.7-77.6 12.9-22.4 39-27.9 57.5-43.9 18.3-16 22-22 31.4-35.8 9.3-13.7 15.3-22.9 20.7-39 5.3-16.2 8-26 8.9-36 1.8-20.6 4.7-12-1.7-73.3-6.5-61.3-41.8-106.1-57.2-143.4 0 0-12.6 15.4-23.8 27.3l-1.3 1.3c-10.5 11.2-18 19-35.3 32.8a981 981 0 0 1-13.3 10.3c-15 11.5-31.3 24-46.4 39.8a241.2 241.2 0 0 0-33 43.5c-7.6 13.9-11.3 21.2-15.6 33.1A154.3 154.3 0 0 0 183 424c3.6 13.3 12.9 36.3 25.8 49.3Z" clip-rule="evenodd"/>
    <mask id="b" width="184" height="447" x="207" y="197" maskUnits="userSpaceOnUse" style="mask-type:alpha">
      <path fill="#fff" fill-rule="evenodd" d="M227.9 478.4c4.5 6.7 9.6 12.7 14.5 18.1 3 3.3 3.9 3.8 5.7 6.5 20.5 30 18.5 104.6 24.7 140.9l22.3-3.9s-23.9-129.5-22.7-132.5a37 37 0 0 1 13.7-17.3c8.2-6 13.6-8.6 19.2-11.5 2.8-1.4 5.7-2.9 9-4.8 10-5.7 15.4-10.6 15.4-10.6a186.4 186.4 0 0 0 29.1-31.4 249.3 249.3 0 0 0 19-36.5c5.8-14.5 9.8-36.6 10.6-45.4a229 229 0 0 0 .2-52.8 370 370 0 0 0-26.8-99.7s-11 13.3-20.7 23.6l-1 1.1a245.3 245.3 0 0 1-30.7 28.4l-11.5 8.9c-13 9.9-27.1 20.7-40.2 34.3a208.6 208.6 0 0 0-28.6 37.6 178 178 0 0 0-13.4 28.7 133 133 0 0 0-5 78.8 137 137 0 0 0 17.2 39.5Zm36.6 24.7.2-1.2.3-1.2c.6-3.6.7-7 .9-10.6a76 76 0 0 1 1-11.5l.3-1.2a170 170 0 0 1 6.5-26.3l2.1-5.8c1.9-5.2 4-11 6.7-16.4a286 286 0 0 1 19.8-32c11.5-17 19.8-28.7 23-33.2 7.7-10.9 14-22.5 21.2-38 7.1-15.4 8.8-47.3 4.3-45 0 0-8.5 14.1-14.5 19.7-5.9 5.6-18.7 18.2-18.7 18.2s-9 9.7-14.4 16.2c-5.4 6.4-10.2 13-15 19.8 0 0-5.6 7.8-10 15.4-4.4 7.7-7 12.7-7 12.7l-8.5 17.5s-4.8 12.3-6 18.2l-3.2 15.5s-1.4 8.2-1 20.8c.6 16.2 4.2 33.8 11.2 48.5l.8-.1Z" clip-rule="evenodd"/>
    </mask>
    <g mask="url(#b)">
      <path fill="#32AA5A" d="m363.3 179.5 6.2 3.5.5 11.6 7.7 18.4 13.4 25.1 9 22.8 7.5 26.1 5.6 32.6 1.3 31.2-2.4 27.8-4.2 23-7 24.5-8.4 21.8-9.1 17.8-7 12.3-12.1 18.3-5.7 8.1-9.4 10.7L340 526l-16.5 16-16 12.9-17.3 12-10 7.3-14-103.6 1-2.7 2.5-3 8.9-7.6L308 441l15.3-11.7 11.1-12 6.6-9.3 4-5.8 5.6-9 5.2-11 5.5-15.2 4.9-19.1L369 328l.4-21.3-1-18.1-8-46.4-8.5-25.9-4.8-16.4 16.2-20.5Z"/>
    </g>
    <path fill="#fff" fill-rule="evenodd" d="M228.8 448.5a153 153 0 0 0 12.9 16c2.6 3 3.4 3.4 5 5.8 18.1 26.6 16.3 92.5 21.8 124.6l19.7-3.4s-21-114.6-20-117.3c1-2.7 3.6-9 12-15.2 7.3-5.3 12-7.7 17-10.2l8-4.3c8.8-5 13.6-9.4 13.6-9.4 9.8-8 22.5-22.6 25.7-27.7a220.5 220.5 0 0 0 16.8-32.3 179 179 0 0 0 9.4-40.2c1.4-15.6 2.2-28.2 0-46.6-3.5-30.8-11.8-59.8-23.6-88.3 0 0-9.7 11.8-18.3 20.9l-1 1c-8 8.5-13.6 14.5-27 25l-10.1 8c-11.5 8.7-24 18.3-35.6 30.3a184.4 184.4 0 0 0-25.2 33.2 157.5 157.5 0 0 0-12 25.4 117.9 117.9 0 0 0-4.2 69.7c2.7 10.2 7.7 24.3 15 35Zm32.4 21.8.2-1 .2-1.1c.5-3.1.6-6.2.8-9.3.1-3.4.2-6.8.9-10.2l.2-1a150.6 150.6 0 0 1 7.7-28.5c1.6-4.5 3.4-9.7 5.9-14.5 3.4-6.7 7.3-13.4 17.5-28.3 10-15 17.4-25.3 20.3-29.4 6.8-9.6 12.3-19.8 18.7-33.5 6.3-13.7 7.7-42 3.8-39.8 0 0-7.6 12.4-12.8 17.4l-16.5 16s-8 8.6-12.8 14.4a265 265 0 0 0-13.2 17.4s-5 7-8.9 13.7c-3.9 6.8-6.2 11.2-6.2 11.2l-7.4 15.5s-4.3 10.9-5.4 16.1l-2.7 13.7s-1.3 7.3-1 18.4c.5 14.3 3.8 30 10 43l.7-.2Z" clip-rule="evenodd"/>
    <circle cx="186" cy="86" r="8" fill="#32AA5A"/>
    <circle cx="215" cy="197" r="8" fill="#32AA5A"/>
    <circle cx="215" cy="197" r="8" fill="#32AA5A"/>
    <circle cx="426" cy="77" r="8" fill="#32AA5A"/>
    <circle cx="463" cy="116" r="8" fill="#32AA5A"/>
    <path fill="#32AA5A" d="M140 194a8 8 0 1 1-16 0 8 8 0 0 1 16 0ZM333.8 122h-2.6l-6.3 10.2-8.9 5v2.6l8.9 3.8 6.3 11.4h2.6l6.3-11.4 8.9-3.8v-2.6l-8.9-5-6.3-10.2ZM314 39h-4l-9.5 15.4L287 62v3.8l13.5 5.8L310 89h3.8l9.6-17.3 13.5-5.8v-3.8l-13.5-7.7L314 39ZM379 84a8 8 0 1 1-16 0 8 8 0 0 1 16 0Z"/>
    <path fill="#fff" fill-opacity=".2" d="M379 84a8 8 0 1 1-16 0 8 8 0 0 1 16 0Z"/>
    <path fill="#32AA5A" d="M291 221a8 8 0 1 1-16 0 8 8 0 0 1 16 0Z"/>
    <path fill="#fff" fill-opacity=".2" d="M291 221a8 8 0 1 1-16 0 8 8 0 0 1 16 0Z"/>
    <circle cx="239" cy="66" r="8" fill="#32AA5A"/>
    <circle cx="409" cy="244" r="8" fill="#32AA5A" transform="rotate(90 409 244)"/>
    <circle cx="409" cy="244" r="8" fill="#fff" fill-opacity=".2" transform="rotate(90 409 244)"/>
    <path fill="#32AA5A" d="M224 247v-2l8-5 4-7h2l3 7 9 5v2l-9 5-3 7h-2l-4-7-8-5Z"/>
  </g>
</svg>
