<svg xmlns="http://www.w3.org/2000/svg" version="1.1" xmlns:xlink="http://www.w3.org/1999/xlink" xmlns:svgjs="http://svgjs.com/svgjs" width="600" height="600"><svg xmlns="http://www.w3.org/2000/svg" viewBox="0 0 600 600">
  <path fill="#041F2C" d="M277 0h46l25 3 29 6 23 7 27 11 25 13 24 16 13 10 14 12 23 23 9 11 12 16 11 17 10 18 9 19 9 24 7 25 5 27 2 19v47l-3 25-5 24-7 24-8 21-13 27-14 23-12 16-9 11-9 10-9 10-8 7-11 10-17 13-15 10-21 12-21 10-24 9-25 7-20 4-25 3h-48l-25-3-28-6-23-7-27-11-25-13-24-16-13-10-14-12-23-23-9-11-12-16-12-19-10-18-12-27-9-28-6-26-4-31v-47l3-24 6-29 7-23 9-22 10-21 10-17 11-16 10-13 12-14 23-23 11-9 16-12 19-12 18-10 22-10 19-7 25-7 28-5Z"></path>
  <path fill="#FFF" d="M294 41h8l10 3 10 9 4 10v11l-4 10-8 8-6 3-5 1h-9l-7-1-15 16-16 17-4 5v112l6 2 9 8 4 9 1 4v7l-4 11-7 8-8 4h-2l1 47 44 1V225l-5-1-8-6-5-8-2-7v-9l4-10 5-6 6-4 6-2h13l8 3 8 7 5 11v12l-4 9-6 7-7 4h-2v121h21l-1 11-2 6H198l1 17 6 8 1 5h124l2 10v7l-125 1v5l24 24h148l-10-18-5-14-3-14-1-9v-18l3-18 5-16 8-16 7-12 9-11 14-15 11-9 13-10 19-12 29-17 24-15 13-9 10-8 3-1 5 21 3 22v47l-3 24-5 22-6 17-10 21-9 13-8 10-5 6-8 7-8 7-14 9-15 7-27 9-13 8-2 2-1 95-9 4-27 9-24 5-27 3h-33l-31-4-27-7-22-8-11-5v-1l110-1-16-16-9 2h-11l-11-4-8-7-4-7v-2H132l-15-13-3-4h127l1-8-22-22-135-1-11-16v-2h127l-8-8-6-1-3 1h-11l-11-4-8-7-5-10-93-1-6-14v-3h100v-5l-24-24-86-1-3-12v-5h37V226l-9-5-8-9-2-5-1-10 3-10 4-6 7-6 8-3h12l8 3 7 6 5 9 1 4v10l-4 10-5 6-8 5h-2v121h39V168l-6-7-11-9-14-13-5-5 2-5 7-8 6 4 10 9 11 9 14 13 3 3 1 200 16 16 10-3h9V130l-6-2-8-7-5-8-1-4V98l4-10 4-5 8-5 7-2h8l9 3 6 4 5 6 3 6 1 5v7l-3 10-9 10-6 3-1 216h36v-49l-5-2-5-5-6-9-1-3v-13l4-9 6-7 7-4 1-118 3-5 14-15 12-13 7-8 3-4-3-10v-7l4-11 6-7 9-5Z"></path>
  <path fill="#05B7BC" d="m527 165 5 4 13 22 8 19 9 27 5 24 3 27v33l-4 31-7 27-8 22-11 23-12 20-12 16-9 11-15 16-7 7-11 9-11 9-19 13-18 10-19 9-5 1v-95l6-5 10-6 32-11 17-9 13-10 8-8 5-5 7-8 7-10 8-14 8-18 6-19 4-21 2-18v-47l-4-27-4-16Z"></path>
  <path fill="#031E2C" d="m512 273 2 1-5 19-8 16-7 9-9 10-34 34-9 11-11 15-12 20-9 19-7 20-2 1-2-11v-32l4-18 5-13 8-15 10-14 8-10 11-12 8-8 8-7 15-12 19-13Z"></path>
  <path fill="#05B7BC" d="M86 458h134l23 23-1 6-1 2H113l-15-15-9-11Z"></path>
  <path fill="#FFF" d="M452 126h10l10 3 8 5 8 8 4 9 1 4v13l-4 11-8 10-10 6-6 2h-15l-11-4-10-9-6-10-2-14 2-11 6-10 9-8 10-4Z"></path>
  <path fill="#05B7BC" d="M133 506h109l6 10 8 6 9 3h11l9-2 17 17v1H189l-23-12-16-10-15-11ZM57 410h92l6 11 7 6 11 4h11l7-1 8 7 3 4H73l-11-19-5-10Z"></path>
  <path fill="#031E2C" d="M246 458h136v31h-83l-6-12-7-6-11-4h-10l-9 2-10-10Z"></path>
  <path fill="#05B7BC" d="M40 363h86l25 25-1 5H49l-8-24Z"></path>
  <path fill="#031E2C" d="M298 507h84l1 1v29l-1 4h-54l-31-31Z"></path>
  <path fill="#FFF" d="m374 124 9 1 8 4 7 8 3 7v11l-3 8-7 8-9 4h-12l-9-4-7-7-3-7-1-9 3-10 6-8 10-5Z"></path>
  <path fill="#05B7BC" d="m367 57 2 1 5 10 7 5 5 2v2l-10 6-5 6-3 7-2-3-4-8-6-5-7-3v-2l10-5 5-6ZM411 207h9l6 5 1 2-1 9-6 5-7 1-7-6-1-2v-8l5-5Z"></path>
  <path fill="#FFF" d="M450 467h7l5 3 2 4v7l-2 4-6 3-8-1-5-6v-8l5-5ZM355 264h7l5 5 1 7-4 6-2 1h-8l-5-5-1-7 3-5ZM427 81h6l5 3 2 4v6l-5 6-6 1-7-4-2-7 2-5Z"></path>
  <path fill="#05B7BC" d="M380 212h2l5 8 7 4v2l-7 3-5 9h-2l-5-9-7-3v-2l7-4ZM49 268l7 1 3 3v7l-5 4-7-1-2-3v-8ZM313 122h7l4 5-1 6-4 3h-6l-4-5v-5ZM133 102h7l4 5v5l-5 4h-6l-4-5 1-6ZM54 304h7l4 5-1 6-4 3h-6l-3-3-1-6ZM334 303l6 1 3 4v6l-5 4-6-1-3-3v-7ZM242 61l6 2 2 2v7l-5 4-6-1-3-3v-7l3-3ZM269 138h7l4 4v6l-4 4h-6l-4-4v-7ZM160 236h7l4 4v6l-5 4-7-1-2-3v-7Z"></path>
</svg><style>@media (prefers-color-scheme: light) { :root { filter: none; } }
</style></svg>